PathFileType	4	(X/Y/Z)	Patient4_TMGait_0pt3_02_left_17.trc.trc
DataRate	CameraRate	NumFrames	NumMarkers	Units	OrigDataRate	OrigDataStartFrame	OrigNumFrames
48.611111111111	48.611111111111	5	33	mm	48.611111111111	106	       141
Frame#	Time	Sacral			L.Shoulder			Chest			R.Shoulder			Neck			R.ASIS			L.ASIS			R.Thigh.Superior			R.Thigh.Lateral			R.Thigh.Inferior			R.Patella			L.Thigh.Superior			L.Thigh.Lateral			L.Thigh.Inferior			L.Patella			L.Shank.Superior			L.Shank.Lateral			L.Shank.Inferior			R.Shank.Superior			R.Shank.Lateral			R.Shank.Inferior			R.Heel			R.Midfoot.Superior			R.Midfoot.Lateral			R.Toe			L.Heel			L.Midfoot.Lateral			L.Midfoot.Superior			L.Toe			L.Elbow			L.Wrist			R.Elbow			R.Wrist			
		X1	Y1	Z1	X2	Y2	Z2	X3	Y3	Z3	X4	Y4	Z4	X5	Y5	Z5	X6	Y6	Z6	X7	Y7	Z7	X8	Y8	Z8	X9	Y9	Z9	X10	Y10	Z10	X11	Y11	Z11	X12	Y12	Z12	X13	Y13	Z13	X14	Y14	Z14	X15	Y15	Z15	X16	Y16	Z16	X17	Y17	Z17	X18	Y18	Z18	X19	Y19	Z19	X20	Y20	Z20	X21	Y21	Z21	X22	Y22	Z22	X23	Y23	Z23	X24	Y24	Z24	X25	Y25	Z25	X26	Y26	Z26	X27	Y27	Z27	X28	Y28	Z28	X29	Y29	Z29	X30	Y30	Z30	X31	Y31	Z31	X32	Y32	Z32	X33	Y33	Z33	

106	35.020000000000	675.423819144500	988.195667586261	575.701687090203	867.619363443074	1423.044763922424	407.356146577151	966.172089986154	1344.358889376395	566.352748320551	883.696072872464	1410.690638387413	743.228404422278	850.266838001867	1478.696712670890	568.862745614925	910.887131338585	924.055290731997	684.453128827643	886.284522329985	949.542075080725	412.928403194693	963.021426574857	729.374264702421	641.398308582247	891.024402229752	610.109290572520	692.058436786979	971.721325071020	568.447652433421	608.033852795382	976.925043257468	472.119000970649	609.402943512884	967.013142609401	763.284912118182	428.930277823483	918.276902321699	638.423934086303	349.046863790613	1023.990994227385	576.440279772113	407.097061369897	1039.205468923133	491.496929508598	395.372448490460	982.267371424428	422.992191498055	383.274004968860	848.725229747658	357.366540106849	342.161225479118	870.291338153667	224.525847047121	382.480084858726	929.820551263002	384.760067129668	608.520192383541	840.531926140315	290.418618751484	664.542120788644	863.446584369001	196.083614143342	593.921676979201	703.557175509322	43.716045825829	559.043438809454	878.309409701710	96.609811334613	592.914309303054	788.207594432195	37.276339954659	631.550939245276	996.492879179828	40.822297854507	617.186000282262	706.292806770494	108.290200094921	430.036513869384	761.262930239030	95.256886433902	337.214343353289	861.895188083516	129.190115308549	350.224423625031	960.824957260165	50.559650684146	292.864886378602	846.138666193449	1074.161247490432	277.991230363027	949.688389943848	835.449029722542	274.313892393828	873.691898400951	1054.482017316708	848.558841177048	976.203436453055	817.279252700111	879.696048901097	
107	35.040571428571	673.485968679149	986.917738605038	578.645674330268	861.918424919505	1422.313668031155	408.456244994861	963.267443569809	1343.857860873551	565.831826387567	883.553352006311	1409.810347287260	744.151314270274	847.391793282006	1478.005316347252	570.217480288654	910.113873749477	923.385710766781	684.642544054416	882.808990096633	949.586539155709	413.379981688251	961.129897084747	728.285089728745	640.115672473128	889.777187487958	608.849107084430	691.489472373523	968.907309663956	567.308960052809	606.119621097855	973.701674341294	470.857953242392	607.120416764316	965.702578497229	765.210063982991	430.061521240230	919.337687006040	639.773263340120	350.103283702172	1025.178868271575	579.347154629102	409.137588539315	1042.936777949734	496.030507039548	397.308283835565	990.056573031985	426.096279154897	384.187178290066	861.792925628649	352.487544535583	341.190705241409	891.562439114420	220.662653749225	381.141198745368	926.136038151935	383.519368005978	606.780233681538	837.022497650286	289.518923397881	663.747013358339	858.280466589356	195.216355209081	592.854342934264	697.356805850003	43.626139158026	558.967774429852	872.004073992593	96.466977449052	592.560771003295	782.011724323007	37.288509805013	631.524822361918	990.286690523413	40.754052368133	617.156827983495	735.028114258863	93.944447720347	426.519134699334	792.024193990749	84.629254171665	334.458539800794	890.243713633787	124.545887296342	348.598940744856	994.476854790399	52.386261311881	292.596634130769	826.508310637610	1072.860397500542	283.318111959670	908.769415406864	825.889841321389	279.161401874861	890.524953128436	1053.008887342475	848.931790168565	1010.363775695182	823.849866893632	876.734693328649	
108	35.061142857143	671.643478435515	986.133250983709	581.442097207804	856.217671957306	1421.976504131354	409.363046119766	960.493429485429	1343.762619719340	564.962372361424	883.751730508998	1409.462488606679	744.690285073866	844.657051231395	1477.707870427200	571.256810751987	909.368769802068	922.961671123390	684.570117644482	879.400644601844	950.063438074834	413.607895248489	958.943170178575	727.346269509619	638.543082257236	888.094762281137	607.871002360219	690.741939628982	965.465951240445	566.331040912229	603.956067556003	969.763542865404	469.858165590205	604.589557149388	964.115679663875	767.218215392177	431.413824275355	920.025007168212	641.295749811900	351.286738333888	1025.526172809403	582.111553383616	411.621603182756	1045.705256616556	500.621883667338	399.760433224071	997.079560805439	429.470641900432	385.630129190170	874.972433924560	347.877067658074	340.065276413005	912.722170115796	217.612831475784	380.220374639703	921.879480462355	382.544459420072	604.868383675641	833.222205028735	288.739694462166	662.875899479049	852.905105306411	194.491071943894	591.723327900703	691.151346804004	43.575189257402	558.898450309793	865.662636979646	96.318548682461	592.167595237802	775.825527798281	37.305421621348	631.486752462094	984.081576100159	40.650085654383	617.103819248014	763.915713859584	81.067460473070	422.596638283452	823.506031494337	74.959176613146	331.941761117553	918.962022464534	120.675164635241	347.788021412655	1028.449750824746	54.749235568034	294.552858164402	806.861880372148	1072.788160558474	288.297825816442	868.447228934123	819.723943463651	283.993287364001	907.491945015521	1053.075640117123	848.851267386582	1044.978609402151	833.725998962935	872.552136832667	
109	35.081714285714	669.906224273713	985.871497535229	584.092834383113	850.574439335253	1422.048490378170	410.079125667107	957.876498718361	1344.074119354952	563.753117941537	884.301834116724	1409.652115510806	744.836373875588	842.094873097533	1477.814491945855	571.982597544146	908.652516179739	922.813373403286	684.285786035201	876.091208955847	950.938896695035	413.643558454815	956.463501205151	726.579695894911	636.890640941825	885.897910718649	607.215590050773	689.972201930285	961.425950922420	565.534788894564	601.803554510014	965.132179140259	469.138229480282	602.099330061451	962.280881337055	769.283145762902	432.913958559537	920.286704693684	642.969272328951	352.514424688159	1025.097120258096	584.699185281570	414.316303815298	1047.507377362593	505.185959762521	402.513036715293	1003.206308609075	433.063855056066	387.480854838785	887.949782652872	343.774712804442	338.892872982051	933.233885449675	215.606108935056	379.818761976108	917.050894480957	381.863915681516	603.003294700781	829.047061612204	288.122480148878	662.048476787583	847.310319527271	193.944712276275	590.647467686200	684.941626693553	43.571293838193	558.849311014955	859.299660582355	96.173894146029	591.776369021591	769.646830787445	37.324466426858	631.446296123712	977.877814185627	40.517858222909	617.032953544525	792.245289876795	70.197973652418	418.661418592516	854.848790094946	66.745198271811	329.948133746917	947.264889418421	117.898008754308	347.905218753215	1061.749618587522	57.802827211099	298.643380962225	787.410503309819	1073.989274876461	292.836491438660	829.438666357183	816.797860336434	288.774850443173	924.437405216542	1054.696126559519	848.367758077353	1079.517845008736	847.002961849948	867.269794100079	
110	35.102285714286	668.294451681510	986.130724565720	586.589528230393	845.060817974919	1422.521254056029	410.606865751799	955.438946649368	1344.771140611876	562.229631837301	885.183473060658	1410.358327445685	744.592046672461	839.729807559591	1478.311837582997	572.401782605822	907.963208261483	922.953735635332	683.847747267427	872.916383890778	952.152527676904	413.527274953852	953.701469346715	725.995868470068	635.353328697764	883.126056420985	606.905472955177	689.323078634063	956.831686927714	564.928586606875	599.901584647449	959.846607373684	468.703528392504	599.913059001698	960.224443376466	771.348535868281	434.441433538771	920.026995438825	644.736479349632	353.693149012545	1023.936998560787	587.059030003292	416.949675100329	1048.314504675803	509.616787014633	405.318485224438	1008.295989873251	436.787429754283	389.565209166702	900.350661973482	340.316160454196	337.779346809763	952.589940151686	214.727367711232	379.962041397813	911.672613473848	381.491656131737	601.382444080135	824.432515918671	287.698999800781	661.374722048113	841.495752661337	193.603990761348	589.731292503887	678.728410269311	43.619293565158	558.831860700776	852.932279409912	96.043388748212	591.429847485953	763.472543564087	37.343299599591	631.412988521851	971.675296909615	40.366966703310	616.951400340752	819.377267936056	61.580985302689	415.086285030441	885.210150821691	60.266008460963	328.682650112442	974.395952164193	116.388730312598	348.936388279873	1093.453273464801	61.653664695415	304.516430083490	768.368122930406	1076.447675864723	296.873473263515	792.381148698116	816.817300915709	293.474682417051	941.219991195217	1057.823390992673	847.523638706232	1113.434469279452	863.646162636266	861.024397844984	
